<svg width="1024" height="337" viewBox="0 0 1024 337" fill="none" xmlns="http://www.w3.org/2000/svg">
<path d="M232.891 321.086C235.071 316.876 239.061 315.296 250.531 314.116C256.181 313.536 261.001 312.856 261.251 312.606C261.511 312.356 257.001 312.246 251.251 312.376C234.921 312.736 231.921 310.566 230.571 297.406L229.891 290.686L229.301 297.186C228.521 305.756 226.731 309.246 221.841 311.686C218.071 313.576 215.941 313.676 184.341 313.596C116.871 313.416 66.2314 306.816 34.3914 294.066C5.85138 282.646 -4.04862 265.186 6.36138 244.616C12.4614 232.576 30.5914 215.266 51.8414 201.206C60.7314 195.326 64.0214 192.586 57.8414 196.216C36.0314 209.026 16.1914 225.686 7.38138 238.596C-2.26862 252.726 -2.46862 268.006 6.85138 279.026C22.5514 297.606 66.8714 310.116 131.341 314.146C140.411 314.716 163.591 315.206 182.841 315.236C207.251 315.286 218.871 315.656 221.251 316.496C226.421 318.306 228.671 322.086 229.231 329.946L229.721 336.686L230.561 330.316C231.031 326.816 232.081 322.666 232.891 321.086ZM271.901 317.736C273.731 316.366 273.671 316.296 270.841 316.486C267.921 316.676 267.841 316.556 267.821 312.186C267.801 305.366 266.031 306.296 265.931 313.186C265.851 318.606 266.041 319.186 267.901 319.186C269.031 319.186 270.831 318.536 271.901 317.736ZM287.871 316.136C288.281 315.466 287.491 315.196 285.721 315.386C283.691 315.606 282.811 315.196 282.551 313.936C282.301 312.716 282.821 312.186 284.271 312.186C285.411 312.186 286.341 311.736 286.341 311.186C286.341 310.636 285.441 310.186 284.341 310.186C283.231 310.186 282.341 309.516 282.341 308.686C282.341 307.726 283.311 307.186 285.041 307.186C286.971 307.186 287.431 306.876 286.661 306.106C285.481 304.926 279.681 305.216 280.091 306.436C280.231 306.846 280.341 309.436 280.341 312.186V317.186H283.781C285.671 317.186 287.511 316.716 287.871 316.136ZM297.131 314.436C296.941 313.266 297.591 312.576 299.091 312.366C300.601 312.156 301.341 312.556 301.341 313.616C301.341 314.476 302.011 315.186 302.831 315.186C304.001 315.186 303.751 314.016 301.621 309.696C300.141 306.666 298.631 304.536 298.271 304.946C297.701 305.576 294.341 314.926 294.341 315.866C294.341 316.046 295.031 316.186 295.881 316.186C296.801 316.186 297.311 315.476 297.131 314.436ZM316.341 312.936C316.341 312.796 317.241 310.326 318.341 307.436C319.951 303.196 320.061 302.186 318.921 302.186C318.061 302.186 317.251 303.736 316.841 306.186C316.011 311.116 314.861 311.266 313.201 306.686C312.511 304.766 311.401 303.186 310.751 303.186C310.021 303.186 310.591 305.126 312.201 308.176C313.651 310.926 315.181 313.176 315.591 313.176C316.001 313.186 316.341 313.076 316.341 312.936ZM334.181 310.186C334.591 308.916 334.421 308.886 333.051 310.026C331.231 311.526 329.341 310.806 329.341 308.626C329.341 307.836 330.241 307.186 331.341 307.186C332.441 307.186 333.341 306.736 333.341 306.186C333.341 305.636 332.411 305.186 331.271 305.186C329.821 305.186 329.301 304.656 329.551 303.436C329.761 302.426 330.641 301.806 331.631 301.976C332.571 302.146 333.341 301.806 333.341 301.226C333.341 300.656 332.481 300.186 331.421 300.186C327.351 300.186 326.831 300.996 327.191 306.756C327.531 312.286 327.541 312.296 330.611 311.996C332.301 311.826 333.911 311.016 334.181 310.186ZM360.061 305.066C361.441 303.686 360.621 301.186 358.791 301.186C357.041 301.186 356.021 302.916 356.721 304.736C357.391 306.476 358.541 306.586 360.061 305.066ZM391.541 302.646C393.741 297.806 389.431 291.386 385.591 293.796C384.631 294.396 383.431 296.046 382.921 297.466C380.801 303.406 388.961 308.316 391.541 302.646ZM407.361 301.666C408.891 299.816 407.791 298.336 406.121 300.006C403.901 302.226 402.341 301.306 402.341 297.766C402.341 293.936 401.511 291.186 400.361 291.186C399.631 291.186 400.031 299.186 400.891 301.936C401.431 303.686 405.841 303.496 407.361 301.666ZM421.121 299.626C422.641 298.566 423.341 297.046 423.341 294.826C423.341 290.586 421.791 289.186 417.101 289.186C413.621 289.186 413.371 289.366 414.301 291.116C414.871 292.186 415.341 294.886 415.341 297.116C415.341 301.686 417.101 302.446 421.121 299.626ZM449.021 290.586C449.871 288.366 447.211 286.896 445.471 288.626C444.721 289.376 444.411 290.486 444.781 291.086C445.791 292.716 448.311 292.416 449.021 290.586ZM473.931 289.686C473.171 286.676 474.381 286.466 476.841 289.186C479.491 292.116 480.831 291.626 478.451 288.606C477.041 286.806 476.591 285.166 476.991 283.206C477.441 280.946 477.131 280.256 475.441 279.716C474.291 279.356 472.521 279.316 471.511 279.636C469.771 280.186 469.761 280.516 471.241 286.196C472.101 289.496 473.191 292.186 473.681 292.186C474.161 292.186 474.271 291.066 473.931 289.686ZM493.331 286.696C494.771 284.966 493.831 276.186 492.211 276.186C491.661 276.186 491.421 276.976 491.681 277.936C493.201 283.536 493.231 285.026 491.871 286.156C489.721 287.946 488.531 286.646 487.781 281.666C487.421 279.196 486.661 277.186 486.101 277.186C484.841 277.186 485.981 285.046 487.511 286.886C488.951 288.626 491.811 288.536 493.331 286.696ZM507.191 285.086C510.331 283.996 511.141 282.796 509.451 281.756C508.971 281.456 508.011 281.876 507.341 282.686C505.551 284.846 504.541 283.706 503.781 278.666C503.411 276.186 502.571 274.186 501.901 274.186C500.981 274.186 501.041 275.616 502.151 280.186C502.961 283.486 503.711 286.186 503.831 286.186C503.951 286.186 505.461 285.696 507.191 285.086ZM523.181 280.186C523.591 278.916 523.421 278.886 522.051 280.026C521.161 280.756 519.961 281.066 519.381 280.716C517.801 279.736 518.131 277.186 519.841 277.186C520.671 277.186 521.341 276.706 521.341 276.116C521.341 275.506 520.491 275.326 519.341 275.686C517.781 276.186 517.341 275.866 517.341 274.256C517.341 272.856 517.981 272.186 519.341 272.186C520.441 272.186 521.341 271.736 521.341 271.186C521.341 270.026 517.371 269.866 515.741 270.956C514.961 271.476 515.071 273.206 516.131 276.986C517.481 281.756 517.881 282.256 520.161 281.986C521.551 281.826 522.911 281.016 523.181 280.186ZM536.301 277.256C537.461 275.086 535.831 272.796 532.331 271.686C529.661 270.836 529.791 269.186 532.541 269.186C534.211 269.186 534.461 268.906 533.581 268.026C532.711 267.156 532.051 267.186 530.881 268.146C528.411 270.206 529.061 272.826 532.381 274.206C535.751 275.596 535.821 277.726 532.491 277.606C531.311 277.566 530.341 277.896 530.341 278.356C530.341 280.056 535.301 279.136 536.301 277.256ZM560.341 268.296C560.341 265.876 557.841 264.876 556.331 266.706C554.861 268.476 555.881 270.186 558.401 270.186C559.641 270.186 560.341 269.496 560.341 268.296ZM583.131 266.476C582.741 264.196 586.371 263.486 587.551 265.606C588.051 266.496 588.871 266.976 589.371 266.666C589.871 266.356 588.661 263.856 586.691 261.106C584.711 258.356 582.831 256.356 582.511 256.676C582.201 256.996 581.671 259.716 581.341 262.716C580.871 266.936 581.041 268.186 582.081 268.186C582.821 268.186 583.301 267.416 583.131 266.476ZM598.281 262.066C597.011 259.696 597.831 258.186 600.401 258.186C602.111 258.186 602.881 259.776 602.461 262.436C602.391 262.846 602.941 263.186 603.671 263.186C604.761 263.186 604.731 262.096 603.461 257.256C602.611 253.996 601.551 251.556 601.091 251.836C600.631 252.126 600.521 253.186 600.851 254.206C601.241 255.436 600.781 256.416 599.521 257.086C597.321 258.266 596.341 257.636 596.341 255.016C596.341 254.016 595.841 253.186 595.221 253.186C594.531 253.186 594.361 254.046 594.781 255.436C595.141 256.676 595.701 259.336 596.011 261.356C596.411 263.906 597.001 264.866 597.941 264.506C598.961 264.116 599.041 263.496 598.281 262.066ZM617.411 260.146C618.471 259.586 619.341 258.596 619.341 257.946C619.341 257.086 619.031 257.096 618.141 257.986C616.361 259.766 614.641 259.446 614.061 257.216C613.711 255.876 614.151 255.066 615.461 254.646C617.971 253.856 616.931 252.216 614.341 252.896C612.951 253.256 612.341 252.926 612.341 251.806C612.341 250.226 613.431 249.756 616.191 250.136C616.931 250.236 617.241 249.836 616.881 249.256C616.131 248.036 611.681 247.796 611.031 248.936C610.801 249.346 611.091 252.276 611.691 255.436C612.801 261.366 613.721 262.126 617.411 260.146ZM628.131 255.476C627.731 253.116 631.171 252.576 632.761 254.746C633.461 255.706 634.291 256.076 634.601 255.576C634.911 255.076 633.521 252.436 631.501 249.716L627.841 244.776L627.211 247.726C626.181 252.546 626.261 257.186 627.381 257.186C627.961 257.186 628.301 256.416 628.131 255.476ZM424.841 254.616C448.981 250.436 470.101 239.496 487.401 222.236C502.931 206.736 512.971 188.976 518.071 167.956C520.811 156.696 520.541 127.586 517.591 116.446C514.661 105.356 510.111 94.1662 505.091 85.6862C501.881 80.2662 500.851 77.4162 500.531 73.0462C499.701 61.7562 501.681 58.9262 532.291 27.6962C544.141 15.5962 552.941 6.42621 551.841 7.29621C550.741 8.17621 543.991 13.7362 536.841 19.6462C517.011 36.0462 501.421 47.4962 495.421 50.0662C487.381 53.5162 478.491 52.8462 471.211 48.2462C452.341 36.3362 439.731 31.2462 422.641 28.6762C398.251 24.9962 376.851 28.4162 353.711 39.6762C322.201 55.0162 300.231 81.9062 291.121 116.306C289.221 123.466 288.891 127.306 288.881 142.686C288.861 159.286 289.081 161.456 291.611 170.556C301.191 204.976 325.931 233.326 358.461 247.166C378.001 255.486 403.411 258.336 424.841 254.616ZM648.141 251.986C650.011 250.116 649.581 244.716 647.411 242.746C645.991 241.466 644.641 241.186 642.351 241.686C640.531 242.086 639.451 242.846 639.741 243.526C640.021 244.166 640.811 246.596 641.501 248.936C642.461 252.186 643.251 253.186 644.851 253.186C646.001 253.186 647.481 252.646 648.141 251.986ZM667.841 241.146C675.441 238.926 682.371 236.646 683.251 236.076C684.591 235.196 684.601 235.106 683.301 235.496C682.451 235.756 675.931 237.626 668.801 239.676C657.491 242.906 651.481 245.056 653.441 245.156C653.771 245.176 660.251 243.366 667.841 241.146ZM940.341 221.266C940.341 220.766 931.291 205.346 920.221 187.016C909.161 168.686 891.291 139.066 880.521 121.186C869.751 103.306 860.471 88.3562 859.891 87.9562C859.311 87.5462 856.771 87.2062 854.241 87.2062L849.641 87.1862L807.991 153.116C785.081 189.376 766.341 219.316 766.341 219.656C766.341 219.996 769.811 220.136 774.061 219.976L781.771 219.686L817.561 162.736C837.241 131.406 853.701 105.426 854.141 104.986C854.571 104.556 870.631 130.406 889.821 162.436C909.011 194.476 925.191 221.016 925.781 221.416C927.321 222.486 940.341 222.356 940.341 221.266ZM721.341 219.346C721.341 218.986 710.311 205.736 696.841 189.916C683.361 174.096 672.341 160.976 672.341 160.766C672.341 160.566 677.851 160.226 684.591 160.016C695.261 159.696 697.571 159.306 702.501 157.016C709.461 153.776 715.401 147.796 719.061 140.346C721.611 135.156 721.841 133.736 721.841 123.186C721.841 112.526 721.631 111.256 718.951 105.796C712.811 93.2962 703.581 87.5262 687.551 86.1862C682.211 85.7362 658.041 85.2162 633.841 85.0262L589.841 84.6862L589.581 151.436L589.331 218.186H596.331H603.341L603.351 165.436C603.351 136.426 603.651 109.606 604.001 105.836L604.651 98.9862L648.241 99.3862C695.871 99.8262 696.271 99.8762 702.571 105.906C707.721 110.846 709.971 120.866 708.041 130.316C706.991 135.446 702.111 141.736 697.101 144.406C693.081 146.556 691.441 146.716 667.551 147.186L642.251 147.686L670.391 180.186C685.861 198.066 699.941 214.266 701.681 216.186C704.771 219.616 705.011 219.686 713.091 219.846C717.631 219.936 721.341 219.706 721.341 219.346ZM238.341 207.696V200.206L178.591 199.946L118.841 199.686L118.581 138.936L118.321 78.1862H110.831H103.341V146.176V214.166L140.591 214.436C161.081 214.586 191.451 214.816 208.091 214.946L238.341 215.186V207.696ZM838.221 187.726C856.811 181.026 874.501 174.016 874.031 173.546C873.661 173.176 823.291 191.896 822.481 192.706C821.521 193.666 823.391 193.076 838.221 187.726ZM935.221 148.006C1004.26 110.876 1033.23 78.2962 1020.28 52.3762C1012.28 36.3662 987.341 24.3362 947.431 17.2262C893.971 7.6962 798.291 9.06621 703.871 20.7062C697.291 21.5262 689.581 22.1862 686.751 22.1862C677.801 22.1862 674.491 17.5662 674.231 4.6862C674.111 -1.1438 674.091 -1.2038 673.281 2.6862C672.831 4.8862 672.431 8.39621 672.401 10.4862C672.341 14.5862 670.011 19.9462 667.441 21.9062C664.461 24.1662 655.931 26.0462 625.341 31.1662C594.441 36.3362 575.791 39.8562 578.121 40.0662C578.831 40.1362 588.731 38.6462 600.121 36.7562C625.611 32.5462 653.821 28.3262 657.841 28.1262C664.641 27.7862 666.581 28.2662 669.311 31.0062C671.811 33.4962 672.221 34.8562 672.951 42.7562L673.771 51.6862L674.411 43.5262C675.541 29.1962 679.191 25.9362 696.691 23.6362C710.561 21.8162 764.271 16.5862 782.841 15.2562C856.531 9.94621 925.111 12.9462 965.521 23.2362C993.041 30.2462 1013.18 41.7062 1018.71 53.5062C1030.11 77.8262 1000.6 110.866 935.341 146.846C929.021 150.326 924.231 153.186 924.721 153.186C925.201 153.186 929.921 150.856 935.221 148.006ZM297.531 310.106C297.731 309.516 298.321 309.036 298.841 309.036C299.361 309.036 299.951 309.516 300.151 310.106C300.351 310.706 299.761 311.186 298.841 311.186C297.921 311.186 297.331 310.706 297.531 310.106ZM385.431 302.786C383.441 300.396 384.461 295.736 387.051 295.376C388.711 295.136 389.431 295.686 389.891 297.546C391.201 302.766 388.271 306.216 385.431 302.786ZM417.341 297.886C417.341 297.086 417.051 294.986 416.701 293.226C416.111 290.266 416.241 290.036 418.451 290.346C420.511 290.636 420.841 291.226 420.841 294.676C420.841 297.676 420.411 298.746 419.091 298.996C418.071 299.196 417.341 298.726 417.341 297.886ZM472.741 283.786C472.371 282.836 472.571 281.556 473.171 280.956C473.971 280.156 474.461 280.326 474.941 281.586C475.311 282.536 475.111 283.816 474.511 284.416C473.711 285.216 473.221 285.046 472.741 283.786ZM582.491 262.236C582.921 260.946 584.291 260.716 584.421 261.916C584.461 262.306 583.951 262.816 583.291 263.036C582.631 263.256 582.271 262.896 582.491 262.236ZM628.361 249.936C628.371 248.116 628.561 247.976 629.341 249.186C630.591 251.126 630.591 252.186 629.341 252.186C628.791 252.186 628.351 251.176 628.361 249.936ZM382.591 247.156C341.141 238.216 309.871 206.576 301.241 164.836C298.491 151.526 298.981 130.026 302.321 117.686C312.311 80.7662 338.741 53.7462 375.841 42.5262C384.201 40.0062 386.121 39.8062 402.841 39.8062C419.551 39.8062 421.471 40.0062 429.631 42.5062C440.171 45.7362 449.901 50.5062 457.271 56.0362C464.591 61.5362 466.791 65.2162 466.691 71.7962C466.601 78.2262 464.181 82.6162 454.691 93.6062C450.921 97.9562 446.501 103.106 444.861 105.046C442.921 107.336 445.551 105.646 452.361 100.216C464.801 90.3062 472.811 86.1862 479.641 86.1862C486.041 86.1862 489.461 88.1362 493.151 93.8962C501.661 107.156 506.361 122.876 507.081 140.456C507.691 155.176 506.471 164.546 502.291 177.356C496.701 194.456 489.281 206.476 476.431 219.206C462.771 232.756 447.821 241.426 429.601 246.366C418.121 249.486 395.171 249.866 382.591 247.156ZM643.961 251.386C643.721 250.996 643.211 248.986 642.821 246.926C642.191 243.556 642.331 243.186 644.251 243.186C646.571 243.186 648.691 247.106 647.731 249.596C647.101 251.256 644.611 252.436 643.961 251.386Z" fill="black"/>
</svg>
