<svg width="210" height="167" viewBox="0 0 210 167" fill="none" xmlns="http://www.w3.org/2000/svg">
<path d="M42.6113 166.711C42.4608 166.577 41.2282 165.679 39.874 164.713C33.3435 160.053 25.4415 151.992 20.4271 144.874C11.8567 132.704 6.68027 119.154 4.97891 104.433C4.33656 98.874 4.55358 87.4611 5.40136 82.2852C7.49912 69.4746 11.6975 58.6561 18.6245 48.2145C21.9867 43.1489 25.1608 39.3591 29.8366 34.8299C39.9753 25.0146 53.0567 17.6843 66.4273 14.3237C82.081 10.3918 98.7386 11.2153 112.647 16.6086C120.544 19.6706 129.453 25.5162 133.489 30.2832C137.566 35.0995 138.877 39.1329 137.962 44.042C137.135 48.5016 133.26 53.1961 121.039 64.5627C113.582 71.4986 99.9423 83.5785 94.193 88.3396C91.9592 90.1925 91.0391 91.0247 92.8128 89.6793C101.415 83.1464 123.42 68.3235 131.533 63.4869C140.795 57.966 143.943 56.7685 149.209 56.7685C151.996 56.7685 152.453 56.8468 154.024 57.5949C156.848 58.9432 159.056 61.6572 161.825 67.181C164.235 71.9944 166.075 77.208 167.464 83.1551C169.617 92.3846 169.623 104.946 167.479 115.254C164.883 127.743 158.882 140.426 150.696 150.716C147.76 154.411 142.178 160.181 138.833 162.979C137.482 164.113 136.244 165.168 136.085 165.325C135.491 165.911 137.609 164.478 139.846 162.779C158.494 148.608 170.508 128.021 174.041 104.177C174.785 99.1669 174.785 85.8431 174.044 81.1254C173.245 76.0597 171.712 69.7298 170.274 65.5775C169.562 63.5217 168.167 59.5057 167.175 56.6496C164.837 49.9253 164.764 49.0351 166.116 43.5577C167.224 39.0691 167.91 37.4975 169.929 34.8038C172.947 30.782 185.262 19.949 202.779 5.90604C210.102 0.0371872 211.511 -1.11687 208.551 0.950572C207.515 1.67548 201.934 5.23622 196.124 8.97675C167.403 27.4677 162.777 29.7961 155.471 29.4191C150.3 29.1524 148.272 28.1752 138.833 21.3988C132.013 16.5013 128.616 14.3991 123.353 11.8155C107.341 3.95459 90.4402 1.45221 73.4903 4.43303C35.9274 11.0355 6.34173 41.6063 0.812331 79.5306C0.0571375 84.7006 -0.223528 93.3966 0.19313 98.6014C1.37945 113.39 6.32437 127.682 14.5592 140.13C19.18 147.112 26.269 154.95 32.3539 159.798C35.5686 162.361 44.5036 168.384 42.6113 166.711Z" fill="black"/>
</svg>
